<?xml version="1.0" encoding="UTF-8"?>
<svg version="1.1" xmlns="http://www.w3.org/2000/svg" width="225" height="225">
<path d="M0 0 C74.25 0 148.5 0 225 0 C225 74.25 225 148.5 225 225 C150.75 225 76.5 225 0 225 C0 150.75 0 76.5 0 0 Z " fill="#FEFEFE" transform="translate(0,0)"/>
<path d="M0 0 C5.65778108 3.3770631 10.49495799 7.21339286 15 12 C15.66 12.33 16.32 12.66 17 13 C17.74507812 12.53464844 18.49015625 12.06929687 19.2578125 11.58984375 C23.92390316 8.88457466 28.75887706 9.37440177 34 10 C39.77789842 11.9122582 43.0445628 15.96907233 46.25 20.9375 C47.24713635 23.67962495 47.13144145 26.10828807 47 29 C47.94875 28.9175 48.8975 28.835 49.875 28.75 C57.71871013 28.79753764 64.57271877 32.67894741 70.17578125 37.9296875 C78.06211205 46.87991304 79.71246699 55.50571954 79.18359375 67.03515625 C78.76894782 71.47274997 77.1665171 75.15870817 75 79 C74.649375 79.64324219 74.29875 80.28648437 73.9375 80.94921875 C69.57626103 87.93022974 62.16120623 92.22385077 54.3984375 94.5390625 C48.22706821 95.72509113 42.10285411 95.36106818 36 94 C35.55269531 94.55429688 35.10539063 95.10859375 34.64453125 95.6796875 C28.12543516 103.49148282 28.12543516 103.49148282 21.75 104.27734375 C15.19946108 104.68675243 11.0106582 103.21760438 6 99 C3 95.71875 3 95.71875 3 93 C2.16855469 93.34933594 1.33710938 93.69867188 0.48046875 94.05859375 C-0.60621094 94.51363281 -1.69289063 94.96867187 -2.8125 95.4375 C-3.89144531 95.88996094 -4.97039062 96.34242188 -6.08203125 96.80859375 C-15.84247258 100.79378064 -29.66095899 100.74882929 -39.5625 97.125 C-41.06177898 96.46029504 -42.54490027 95.75654142 -44 95 C-45.12728516 94.43925781 -45.12728516 94.43925781 -46.27734375 93.8671875 C-46.84582031 93.58101563 -47.41429688 93.29484375 -48 93 C-48.226875 93.7425 -48.45375 94.485 -48.6875 95.25 C-50.60882967 99.27564311 -53.38223651 101.07556372 -57.1875 103.25 C-62.82544166 104.75345111 -68.02490205 104.96891598 -73.3125 102.375 C-75.46861478 100.46959624 -76.79446665 98.96124616 -78.4375 96.6875 C-79.7059375 95.3571875 -79.7059375 95.3571875 -81 94 C-84.32075016 94.03161858 -84.32075016 94.03161858 -88 95 C-97.2123178 96.0875653 -105.29704084 93.68667142 -112.62109375 87.9453125 C-119.93353058 81.00510152 -123.95113617 73.72018551 -124.39428711 63.56811523 C-124.6158262 52.96552962 -121.95795263 44.9735324 -114.625 37 C-107.90809169 30.89371972 -100.93415387 28.82818935 -92 29 C-92.103125 28.175 -92.20625 27.35 -92.3125 26.5 C-91.78515571 20.59374393 -88.64827782 16.53054369 -84.375 12.5625 C-79.3164114 9.23448119 -73.86674751 9.46587614 -68 10 C-65.0625 11.625 -65.0625 11.625 -63 13 C-59.61817258 11.77858843 -57.43141147 9.65429557 -54.875 7.1875 C-50.32950005 3.06135425 -45.66485796 0.32358244 -40 -2 C-38.69482422 -2.54914063 -38.69482422 -2.54914063 -37.36328125 -3.109375 C-25.89956969 -6.14506169 -10.52803888 -5.53085913 0 0 Z " fill="#99D7F1" transform="translate(128,89)"/>
<path d="M0 0 C5.65778108 3.3770631 10.49495799 7.21339286 15 12 C15.66 12.33 16.32 12.66 17 13 C17.74507813 12.53464844 18.49015625 12.06929687 19.2578125 11.58984375 C23.92390316 8.88457466 28.75887706 9.37440177 34 10 C39.77789842 11.9122582 43.0445628 15.96907233 46.25 20.9375 C47.24713635 23.67962495 47.13144145 26.10828807 47 29 C47.94875 28.9175 48.8975 28.835 49.875 28.75 C57.71871013 28.79753764 64.57271877 32.67894741 70.17578125 37.9296875 C78.06211205 46.87991304 79.71246699 55.50571954 79.18359375 67.03515625 C78.76894782 71.47274997 77.1665171 75.15870817 75 79 C74.649375 79.64324219 74.29875 80.28648437 73.9375 80.94921875 C70.4153369 86.58712566 64.72327286 91.11101631 58.21875 92.6640625 C57.4865625 92.77492188 56.754375 92.88578125 56 93 C56.165 92.13375 56.33 91.2675 56.5 90.375 C58.0039106 79.30891157 58.00140882 69.17923748 51.45703125 59.78515625 C45.88252867 52.93502379 40.36352852 49.3493161 31.6875 47.75 C28.5703125 47.06640625 28.5703125 47.06640625 26 46 C24.57411507 43.7637519 24.10131375 41.86833677 23.546875 39.28515625 C22.62140265 35.41800392 20.90907221 33.71513407 18 31 C13.19420004 28.32898697 8.48615085 27.31423114 3 28 C0.21061123 29.13641765 -2.39815497 30.48619925 -5 32 C-5.45375 31.319375 -5.9075 30.63875 -6.375 29.9375 C-14.94984726 20.34183759 -27.36127229 14.57544643 -40.140625 13.8125 C-54.93133833 13.53732394 -67.48253064 17.79246191 -78.81640625 27.56640625 C-79.92005764 28.67005764 -80.96969393 29.82758275 -82 31 C-86.95 29.515 -86.95 29.515 -92 28 C-91.457285 21.21606248 -89.49182004 17.24871565 -84.4375 12.6875 C-79.40337039 9.20233335 -73.91981629 9.46104463 -68 10 C-65.0625 11.625 -65.0625 11.625 -63 13 C-59.61817258 11.77858843 -57.43141147 9.65429557 -54.875 7.1875 C-50.32950005 3.06135425 -45.66485796 0.32358244 -40 -2 C-38.69482422 -2.54914063 -38.69482422 -2.54914063 -37.36328125 -3.109375 C-25.89956969 -6.14506169 -10.52803888 -5.53085913 0 0 Z " fill="#7FCDED" transform="translate(128,89)"/>
<path d="M0 0 C6.31726037 5.31224167 10.01608167 12.20033639 11 20.39453125 C11.42306226 27.9435484 8.66410922 34.0123117 4.9375 40.4375 C2.75 42.3125 2.75 42.3125 -1 42.625 C-2.0725 42.521875 -3.145 42.41875 -4.25 42.3125 C-4.4975 41.11625 -4.745 39.92 -5 38.6875 C-6.43268654 33.09508221 -8.67891796 29.55627328 -13.25 25.9375 C-18.25224183 23.35534925 -23.78503412 23.65489 -29.25 24.3125 C-31.60826453 25.0781703 -33.17234771 25.92739847 -35.25 27.3125 C-35.971875 26.57 -36.69375 25.8275 -37.4375 25.0625 C-39.93592573 22.61959485 -42.48643202 20.4443953 -45.25 18.3125 C-43.85294318 10.48898181 -40.58045014 5.64295014 -35 0.0625 C-22.34617862 -7.98993179 -12.83397551 -6.66379498 0 0 Z " fill="#FEC704" transform="translate(179.25,75.6875)"/>
<path d="M0 0 C3.09915901 0.39441622 5.55251003 1.70910785 8.2578125 3.21484375 C9.44310547 3.87323242 9.44310547 3.87323242 10.65234375 4.54492188 C11.46832031 5.00447266 12.28429687 5.46402344 13.125 5.9375 C14.36056641 6.62102539 14.36056641 6.62102539 15.62109375 7.31835938 C21.73623029 10.73623029 21.73623029 10.73623029 24 13 C23.625 15.125 23.625 15.125 23 17 C20.46793994 17.94086289 19.30626953 18.11001372 16.72583008 17.18310547 C14.07761497 15.7643718 11.4367864 14.33765646 8.8125 12.875 C7.88501953 12.38773438 6.95753906 11.90046875 6.00195312 11.3984375 C5.12087891 10.91375 4.23980469 10.4290625 3.33203125 9.9296875 C2.52483643 9.48866699 1.7176416 9.04764648 0.88598633 8.59326172 C-1 7 -1 7 -1.89575195 4.44189453 C-1.93015381 3.63606934 -1.96455566 2.83024414 -2 2 C-1.34 1.34 -0.68 0.68 0 0 Z " fill="#FFC10B" transform="translate(104,63)"/>
<path d="M0 0 C2.625 0.375 2.625 0.375 5 1 C5.05784708 5.12494151 5.09354407 9.24977944 5.125 13.375 C5.15013672 15.1384375 5.15013672 15.1384375 5.17578125 16.9375 C5.18222656 18.05898438 5.18867188 19.18046875 5.1953125 20.3359375 C5.20578613 21.37282715 5.21625977 22.4097168 5.22705078 23.47802734 C5 26 5 26 3 28 C-0.53571429 27.46428571 -0.53571429 27.46428571 -2 26 C-2.25256877 22.02724185 -2.18522451 18.04233825 -2.1875 14.0625 C-2.19974609 12.93908203 -2.21199219 11.81566406 -2.22460938 10.65820312 C-2.22654297 9.58634766 -2.22847656 8.51449219 -2.23046875 7.41015625 C-2.23457764 6.42152588 -2.23868652 5.43289551 -2.24291992 4.41430664 C-2 2 -2 2 0 0 Z " fill="#FFC10D" transform="translate(160,32)"/>
<path d="M0 0 C3.00845253 1.43160845 5.87350358 3.07163953 8.75 4.75 C9.52988281 5.18054688 10.30976563 5.61109375 11.11328125 6.0546875 C16.73497754 9.32015978 16.73497754 9.32015978 18.078125 12.765625 C18 15 18 15 17 16 C10.7599787 15.70787937 6.37237595 13.39861539 1.0625 10.25 C0.28326172 9.81945312 -0.49597656 9.38890625 -1.29882812 8.9453125 C-3.36166378 7.73762256 -5.22361274 6.60009561 -7 5 C-7.50390625 2.171875 -7.50390625 2.171875 -7 0 C-4.16178263 -1.41910868 -3.06663321 -0.90195094 0 0 Z " fill="#FFC008" transform="translate(203,117)"/>
<path d="M0 0 C0.33 1.65 0.66 3.3 1 5 C-2.21388556 6.99115918 -5.43066055 8.97707162 -8.65625 10.94921875 C-10.53990373 12.10449703 -12.41897472 13.26759858 -14.28125 14.45703125 C-18.46686202 17.05468082 -18.46686202 17.05468082 -21.4375 16.75 C-21.953125 16.5025 -22.46875 16.255 -23 16 C-23.33 14.35 -23.66 12.7 -24 11 C-20.94796032 9.14881418 -17.88183234 7.32234612 -14.8125 5.5 C-13.94818359 4.97535156 -13.08386719 4.45070313 -12.19335938 3.91015625 C-11.35224609 3.41386719 -10.51113281 2.91757813 -9.64453125 2.40625 C-8.48981323 1.71499023 -8.48981323 1.71499023 -7.31176758 1.00976562 C-4.69843179 -0.13172311 -2.82185418 -0.19205195 0 0 Z " fill="#FFC008" transform="translate(220,64)"/>
<path d="M0 0 C2.827334 0.16090519 3.79991779 0.77789039 5.703125 2.890625 C6.21359375 3.66921875 6.7240625 4.4478125 7.25 5.25 C7.77078125 6.01828125 8.2915625 6.7865625 8.828125 7.578125 C10.13357118 10.2760471 10.23080473 12.04150297 10 15 C8.35 15.33 6.7 15.66 5 16 C4.0106909 14.61133677 3.03396922 13.21370149 2.0625 11.8125 C1.51722656 11.03519531 0.97195312 10.25789063 0.41015625 9.45703125 C-1.06938251 6.87910914 -1.76623022 4.959426 -2 2 C-1.34 1.34 -0.68 0.68 0 0 Z " fill="#FFC109" transform="translate(132,46)"/>
<path d="M0 0 C1.27875 0.00257812 2.5575 0.00515625 3.875 0.0078125 C5.15375 0.00523438 6.4325 0.00265625 7.75 0 C10.875 0.1328125 10.875 0.1328125 11.875 1.1328125 C11.91563832 2.79898365 11.917721 4.46669345 11.875 6.1328125 C9.02661879 7.5570031 6.54712092 7.30276758 3.375 7.3203125 C2.2096875 7.33449219 1.044375 7.34867187 -0.15625 7.36328125 C-3.125 7.1328125 -3.125 7.1328125 -5.125 5.1328125 C-4.51349315 1.09686727 -4.23464762 0.17997252 0 0 Z " fill="#FFBF02" transform="translate(209.125,94.8671875)"/>
<path d="M0 0 C1.32 0.33 2.64 0.66 4 1 C4.95037655 4.10269992 5.1527287 5.60669489 3.9609375 8.67578125 C3.43757812 9.54589844 2.91421875 10.41601562 2.375 11.3125 C1.86710938 12.19550781 1.35921875 13.07851563 0.8359375 13.98828125 C-1 16 -1 16 -3.7109375 16.29296875 C-4.46632812 16.19628906 -5.22171875 16.09960938 -6 16 C-7.13238877 12.61520953 -7.18086851 11.36518683 -5.56640625 8.10546875 C-4.90511719 7.14253906 -4.24382812 6.17960937 -3.5625 5.1875 C-2.90378906 4.21167969 -2.24507812 3.23585937 -1.56640625 2.23046875 C-1.04949219 1.49441406 -0.53257812 0.75835937 0 0 Z " fill="#FFC109" transform="translate(188,46)"/>
</svg>
